HIERARCHY
ROOT ui
{
	 OFFSET 0 0 0
	 CHANNELS 3 XPosition YPosition Z Position
	 EndSite
	 {
	 OFFSET 0 -1 0
	 }
}
ROOT li
{
	 OFFSET 0 0 0
	 CHANNELS 3 XPosition YPosition Z Position
	 EndSite
	 {
	 OFFSET 0 -1 0
	 }
}
ROOT ul
{
	 OFFSET 0 0 0
	 CHANNELS 3 XPosition YPosition Z Position
	 EndSite
	 {
	 OFFSET 0 -1 0
	 }
}
ROOT ll
{
	 OFFSET 0 0 0
	 CHANNELS 3 XPosition YPosition Z Position
	 EndSite
	 {
	 OFFSET 0 -1 0
	 }
}
ROOT tt
{
	 OFFSET 0 0 0
	 CHANNELS 3 XPosition YPosition Z Position
	 EndSite
	 {
	 OFFSET 0 -1 0
	 }
}
ROOT tb
{
	 OFFSET 0 0 0
	 CHANNELS 3 XPosition YPosition Z Position
	 EndSite
	 {
	 OFFSET 0 -1 0
	 }
}
ROOT td
{
	 OFFSET 0 0 0
	 CHANNELS 3 XPosition YPosition Z Position
	 EndSite
	 {
	 OFFSET 0 -1 0
	 }
}
ROOT v
{
	 OFFSET 0 0 0
	 CHANNELS 3 XPosition YPosition Z Position
	 EndSite
	 {
	 OFFSET 0 -1 0
	 }
}
ROOT bn
{
	 OFFSET 0 0 0
	 CHANNELS 3 XPosition YPosition Z Position
	 EndSite
	 {
	 OFFSET 0 -1 0
	 }
}
MOTION
Frames: 16
Frame Time: 0.002
-0.010008575439453125	4.7894498705863955E-4	0		0.6016876220703125	-2.448744873046875	0		-0.8472944946289063	0.3303673095703125	0		-0.5100873107910157	-2.539058349609375	0		2.09517431640625	-0.4028879089355469	0		3.29975830078125	0.46590347290039064	0		4.66478515625	0.9067846069335938	0		5.91413671875	0.4693834533691406	0		-0.17330291748046875	5.9673095703125	0		
0.012327376365661622	-0.0032660980224609375	0		0.6002037963867187	-2.451026611328125	0		-0.8560633544921875	0.3221160583496094	0		-0.5424368286132812	-2.5338662109375	0		2.078090087890625	-0.3747950439453125	0		3.272124755859375	0.46625537109375	0		4.66511865234375	0.906730712890625	0		5.91810791015625	0.48657870483398435	0		-0.1884894256591797	5.9562080078125	0		
-0.00922784423828125	-2.488970011472702E-4	0		0.5788865356445313	-2.4439697265625	0		-0.90181298828125	0.31549740600585935	0		-0.5357703247070312	-2.5283798828125	0		2.089942138671875	-0.35022012329101565	0		3.304353271484375	0.4585476989746094	0		4.67831982421875	0.8994525756835937	0		5.9220615234375	0.5020591735839843	0		-0.32559326171875	5.9522353515625	0		
0.017148216247558593	-0.0010865260362625123	0		0.6105260620117188	-2.439853271484375	0		-0.8955442504882812	0.3099463195800781	0		-0.5599760131835938	-2.5153642578125	0		2.0989765625	-0.3145962829589844	0		3.316663330078125	0.456195068359375	0		4.68765087890625	0.9002513427734375	0		5.9506572265625	0.47325637817382815	0		-0.15821372985839843	5.9749013671875	0		
-0.0044120697975158696	0.0029070789813995363	0		0.6032714233398437	-2.4290595703125	0		-0.8340362548828125	0.318422119140625	0		-0.5420891723632812	-2.497096923828125	0		2.133885009765625	-0.2854245910644531	0		3.322220947265625	0.4689677734375	0		4.70794580078125	0.899868896484375	0		5.95091748046875	0.47337075805664064	0		-0.15926722717285155	5.976515625	0		
0.008880475997924804	-7.159879803657532E-4	0		0.592917724609375	-2.423218994140625	0		-0.9107726440429688	0.3152953186035156	0		-0.5744514770507813	-2.491965576171875	0		2.119829833984375	-0.2523965911865234	0		3.299221435546875	0.45123709106445314	0		4.69897900390625	0.8860050659179688	0		5.941501953125	0.518904052734375	0		-0.17456820678710938	5.96636767578125	0		
-0.007814288139343262	-0.0018234659433364869	0		0.59140283203125	-2.425537353515625	0		-0.9155470581054688	0.3109052734375	0		-0.5379490966796875	-2.494036865234375	0		2.138565185546875	-0.22993855285644532	0		3.344462890625	0.4483294677734375	0		4.70700048828125	0.872853515625	0		5.95508056640625	0.490817138671875	0		-0.2929118347167969	5.9569912109375	0		
-0.010579597473144532	-0.005176362991333008	0		0.5440701904296875	-2.415068359375	0		-0.899392822265625	0.3041503295898437	0		-0.6002394409179688	-2.481404541015625	0		2.17719091796875	-0.2118202667236328	0		3.329593017578125	0.44146356201171877	0		4.707212890625	0.872842529296875	0		5.95734814453125	0.4805179748535156	0		-0.32722198486328125	5.95114794921875	0		
-0.01219681739807129	0.0024521019458770754	0		0.564685546875	-2.405770263671875	0		-0.8941054077148437	0.30758526611328124	0		-0.5566903686523438	-2.476594970703125	0		2.184103271484375	-0.1741500701904297	0		3.351986083984375	0.4519603576660156	0		4.71514453125	0.8586976928710938	0		5.961208984375	0.49783834838867186	0		-0.294359619140625	5.9571513671875	0		
-0.0030147509574890135	8.980990052223206E-4	0		0.5650859985351563	-2.406123291015625	0		-0.8939303588867188	0.307111083984375	0		-0.5650953979492187	-2.4658896484375	0		2.1807275390625	-0.15030392456054686	0		3.360011962890625	0.4437038269042969	0		4.7199326171875	0.8386072387695312	0		5.97632666015625	0.4973921203613281	0		-0.16229844665527343	5.97647607421875	0		
-0.011842353820800781	0.0016573619842529296	0		0.5825536499023437	-2.3997587890625	0		-0.8258788452148438	0.3014933471679688	0		-0.5756019287109375	-2.4581435546875	0		2.173217041015625	-0.13138516235351563	0		3.390294921875	0.4530766906738281	0		4.72389892578125	0.8315345458984374	0		5.96145849609375	0.4981838684082031	0		-0.17681852722167968	5.96530859375	0		
-0.01173426628112793	0.0012736179828643798	0		0.5828538818359374	-2.400094970703125	0		-0.9096141357421875	0.3124596252441406	0		-0.5752969360351563	-2.458572265625	0		2.162573486328125	-0.11741053009033203	0		3.385148193359375	0.4400513916015625	0		4.73348388671875	0.804364990234375	0		5.96522021484375	0.515505859375	0		-0.33140188598632814	5.9535107421875	0		
-0.006754111766815185	-0.004180543899536133	0		0.5919510498046875	-2.40956982421875	0		-0.89367626953125	0.30575186157226564	0		-0.5621455078125	-2.4652041015625	0		2.173880859375	-0.10380084228515625	0		3.380045654296875	0.43202679443359376	0		4.7375869140625	0.8102910766601562	0		5.9539853515625	0.5351586303710938	0		-0.29673272705078124	5.95652734375	0		
-0.007576556205749512	0.004479834079742432	0		0.5463602294921875	-2.3971142578125	0		-0.9635784912109375	0.31150149536132815	0		-0.5887516479492187	-2.454149658203125	0		2.176198974609375	-0.08703292083740234	0		3.4230849609375	0.43419924926757814	0		4.74898486328125	0.776085693359375	0		5.975205078125	0.5067579345703125	0		-0.28100836181640626	5.96388232421875	0		
0.01739838218688965	0.002726799964904785	0		0.5906124877929687	-2.392146728515625	0		-0.8996132202148438	0.3100340576171875	0		-0.5665257568359375	-2.45089306640625	0		2.2164609375	-0.07188936614990235	0		3.413152099609375	0.4402613525390625	0		4.76280859375	0.76884033203125	0		5.9576806640625	0.552579833984375	0		-0.16618516540527345	5.9766103515625	0		
-0.00761051893234253	0.0038261539936065674	0		0.5357411499023438	-2.391513916015625	0		-0.90557763671875	0.31476031494140627	0		-0.568450439453125	-2.454211181640625	0		2.2245849609375	-0.06320058822631835	0		3.413763916015625	0.4201451721191406	0		4.7725146484375	0.7556585083007813	0		5.96249560546875	0.529996337890625	0		-0.2989350280761719	5.95647607421875	0		
